<?xml version="1.0" standalone="no"?>
<!DOCTYPE svg PUBLIC "-//W3C//DTD SVG 20010904//EN"
 "http://www.w3.org/TR/2001/REC-SVG-20010904/DTD/svg10.dtd">
<svg version="1.0" xmlns="http://www.w3.org/2000/svg"
 width="915.000000pt" height="915.000000pt" viewBox="0 0 915.000000 915.000000"
 preserveAspectRatio="xMidYMid meet">
<metadata>
Created by potrace 1.14, written by Peter Selinger 2001-2017
</metadata>
<g transform="translate(0.000000,915.000000) scale(0.100000,-0.100000)"
fill="#000000" stroke="none">
<path d="M5918 8867 c-15 -12 -28 -30 -30 -40 -2 -15 -13 -19 -56 -21 -34 -1
-56 -7 -62 -16 -5 -8 -12 -11 -16 -8 -4 4 -30 -13 -58 -37 -28 -25 -54 -45
-58 -45 -14 0 -8 -48 8 -64 9 -10 13 -24 9 -36 -3 -11 -2 -20 3 -20 6 0 25
-14 43 -30 57 -54 100 -23 64 45 -17 31 -17 33 6 64 18 25 29 31 46 26 13 -3
23 -2 23 3 0 11 147 15 154 3 4 -5 30 -17 58 -27 29 -9 75 -28 103 -42 54 -27
175 -137 175 -159 0 -7 4 -13 9 -13 5 0 15 -16 21 -35 6 -19 15 -35 19 -35 4
0 13 -11 21 -24 7 -15 21 -24 32 -23 18 1 19 7 14 45 -6 41 -5 43 17 36 12 -3
28 -12 36 -18 40 -31 153 -133 281 -253 25 -23 67 -70 95 -105 27 -35 77 -88
111 -118 34 -30 63 -60 63 -65 2 -24 129 -166 183 -206 15 -11 37 -41 48 -67
11 -25 28 -55 38 -65 15 -17 17 -44 16 -216 0 -108 -3 -221 -7 -251 -16 -137
-20 -180 -22 -255 -1 -44 -6 -101 -10 -127 -13 -83 16 -130 47 -74 7 13 20 36
29 52 19 33 29 93 35 214 2 47 8 117 13 155 5 39 13 124 16 190 4 66 9 122 11
124 11 12 26 -21 30 -65 11 -115 13 -130 20 -151 16 -55 54 -12 54 61 0 25 4
47 9 50 16 10 -1 87 -24 112 -13 14 -21 33 -18 43 5 19 -33 108 -75 175 -13
22 -26 51 -27 65 -6 51 -26 117 -49 166 -13 28 -32 75 -42 105 -18 56 -48 115
-71 138 -7 7 -13 20 -13 28 0 8 -7 17 -15 21 -9 3 -23 19 -31 36 -19 36 -89
109 -122 126 -26 14 -46 29 -102 79 -42 36 -93 44 -104 15 -4 -10 -1 -20 8
-25 9 -5 13 -15 9 -25 -4 -11 10 -31 46 -64 29 -27 57 -49 61 -49 13 0 110
-103 110 -117 0 -6 6 -16 13 -20 30 -19 75 -94 100 -165 15 -42 27 -82 27 -89
0 -7 -25 14 -55 46 -30 33 -55 64 -55 69 0 16 -446 465 -463 466 -4 0 -51 43
-103 95 -52 53 -98 93 -103 90 -5 -3 -18 5 -28 17 -10 13 -36 35 -59 51 -22
15 -50 36 -62 47 -12 11 -25 20 -30 20 -5 0 -28 20 -51 45 -46 50 -93 84 -184
133 -71 38 -93 40 -129 9z"/>
<path d="M5120 8750 c-30 -3 -64 -11 -75 -17 -11 -6 -33 -17 -48 -24 -23 -10
-27 -18 -25 -42 4 -44 28 -54 85 -38 70 20 112 22 163 6 25 -8 70 -21 100 -30
78 -23 112 -40 140 -71 14 -15 39 -35 55 -45 17 -10 53 -51 81 -91 40 -57 57
-74 82 -79 l32 -6 0 46 c0 41 -5 52 -35 81 -19 19 -35 39 -35 45 0 16 -108
125 -161 163 -25 18 -72 40 -105 48 -32 9 -77 24 -99 34 -52 23 -88 28 -155
20z"/>
<path d="M2790 8719 c-19 -5 -64 -13 -99 -19 -35 -6 -77 -20 -92 -30 -15 -11
-36 -20 -47 -20 -12 0 -24 -4 -27 -10 -3 -5 -14 -10 -23 -10 -10 0 -33 -9 -52
-20 -19 -10 -64 -33 -100 -51 -36 -17 -72 -35 -80 -40 -8 -4 -35 -18 -60 -31
-25 -12 -69 -42 -98 -65 -30 -24 -58 -43 -63 -43 -5 0 -9 -7 -9 -15 0 -8 -4
-15 -8 -15 -21 0 -141 -101 -225 -190 -29 -30 -67 -69 -84 -86 -18 -17 -33
-36 -33 -42 0 -7 -4 -12 -10 -12 -5 0 -26 -26 -46 -57 -20 -32 -41 -59 -45
-61 -5 -2 -9 -12 -9 -21 0 -10 -11 -28 -25 -41 -14 -13 -25 -29 -25 -36 0 -6
-21 -53 -47 -103 -25 -50 -50 -110 -54 -134 -14 -85 -34 -147 -46 -147 -20 0
-76 -59 -114 -120 -18 -30 -37 -56 -41 -58 -5 -2 -8 -12 -8 -23 0 -11 -11 -37
-25 -59 -14 -22 -25 -48 -25 -58 0 -10 -7 -27 -15 -38 -8 -10 -15 -33 -15 -50
0 -17 -7 -37 -15 -44 -8 -7 -13 -16 -10 -20 3 -5 1 -11 -5 -15 -5 -3 -10 -18
-10 -33 0 -15 -11 -74 -24 -132 -31 -134 -47 -210 -47 -232 0 -12 -8 -18 -24
-18 -29 0 -96 -81 -133 -160 -14 -30 -33 -71 -43 -90 -40 -80 -50 -311 -14
-346 8 -9 15 -20 15 -25 0 -5 9 -9 20 -9 22 0 27 -15 8 -23 -7 -3 -3 -6 10 -6
13 -1 20 3 17 9 -3 6 0 13 8 16 19 7 22 96 5 138 -9 23 -8 34 6 61 12 21 17
48 14 73 -2 22 0 38 3 36 11 -7 39 74 32 93 -3 10 -3 15 2 11 10 -9 35 16 35
35 0 20 29 42 40 31 5 -5 10 -27 11 -49 2 -46 23 -85 44 -85 8 0 15 9 15 20 0
11 -4 20 -10 20 -5 0 -10 5 -10 10 0 6 7 10 16 10 11 0 13 6 9 19 -3 11 0 59
8 108 8 48 15 112 16 142 1 30 6 62 12 72 5 10 9 26 9 36 0 10 7 32 16 48 9
17 18 55 21 85 4 30 12 64 18 75 7 11 16 36 19 56 4 21 13 42 21 49 9 8 15 30
15 56 0 24 4 44 8 44 5 0 18 22 29 48 12 26 28 54 37 61 9 8 16 19 16 26 0 21
71 95 91 95 11 0 19 4 19 8 0 5 12 15 26 23 44 23 53 79 13 79 -23 0 -24 21
-3 61 8 17 14 41 12 54 -2 13 6 36 18 52 11 15 25 46 32 69 6 22 21 51 32 64
11 13 20 31 20 40 0 10 7 21 16 24 8 3 13 10 9 16 -6 10 17 50 47 84 10 11 18
25 18 31 0 7 41 54 91 106 50 52 98 104 106 117 8 12 22 22 29 22 8 0 14 6 14
13 0 8 11 19 24 25 14 6 35 25 47 41 13 17 28 31 34 31 6 0 21 10 32 23 32 34
78 72 92 75 7 1 29 14 49 27 20 14 42 25 49 25 6 0 18 6 25 13 25 24 68 47 87
47 11 0 23 5 27 11 6 11 66 40 91 45 19 3 87 26 98 32 5 4 24 5 42 3 18 -1 38
1 45 6 18 11 116 32 157 32 77 2 87 84 13 108 -15 5 -43 6 -62 2z"/>
<path d="M3100 8450 c-8 -5 -30 -15 -47 -22 -18 -7 -33 -16 -33 -20 0 -5 -6
-8 -14 -8 -7 0 -54 -40 -105 -90 -50 -49 -95 -90 -100 -90 -17 0 -42 -40 -39
-62 4 -30 38 -37 45 -9 3 14 13 21 29 21 13 0 24 5 24 10 0 6 9 10 20 10 11 0
48 28 84 64 36 35 67 62 70 59 3 -3 13 2 22 12 16 16 16 16 -2 13 -11 -2 -20
4 -22 15 -4 17 22 25 32 9 3 -5 33 -4 68 3 58 10 63 13 60 36 -6 43 -56 70
-92 49z"/>
<path d="M7247 8212 c-27 -30 -16 -102 16 -102 7 0 28 -13 47 -30 19 -16 41
-29 48 -30 28 0 189 -163 254 -257 13 -18 28 -33 35 -33 13 0 79 -86 101 -130
16 -33 37 -64 96 -145 48 -67 106 -170 106 -191 0 -6 7 -17 15 -24 8 -7 15
-21 15 -32 0 -11 9 -31 20 -45 11 -14 20 -32 20 -39 0 -8 5 -14 11 -14 5 0 8
-4 4 -10 -3 -5 1 -26 10 -46 8 -20 15 -44 15 -53 0 -9 9 -34 19 -55 11 -21 25
-72 31 -115 6 -42 16 -98 22 -126 13 -56 16 -534 3 -555 -11 -18 -25 7 -25 46
0 17 -7 37 -15 44 -8 7 -15 18 -15 25 0 38 -131 198 -155 189 -8 -3 -16 3 -20
16 -11 34 -104 115 -129 112 -29 -5 -39 -16 -42 -48 -2 -22 15 -44 100 -128
131 -128 188 -230 202 -356 3 -19 7 -53 10 -75 17 -111 4 -299 -32 -452 -34
-149 -45 -193 -74 -283 -16 -52 -30 -102 -30 -110 0 -8 -11 -35 -25 -59 -14
-23 -25 -58 -25 -75 0 -20 -8 -40 -20 -51 -11 -10 -20 -29 -20 -42 0 -20 5
-23 39 -23 71 0 65 -9 121 180 12 41 33 105 47 143 22 60 27 67 52 67 45 0 68
31 81 109 6 39 10 74 7 78 -6 9 17 220 32 303 34 184 52 647 35 870 -17 210
-29 275 -74 400 -8 19 -25 67 -38 105 -14 39 -32 77 -39 86 -7 8 -13 21 -13
28 0 7 -8 30 -19 50 -10 20 -26 52 -35 71 -32 69 -80 144 -118 184 -15 17 -28
35 -28 42 0 11 -16 33 -89 124 -11 14 -36 46 -56 73 -66 89 -224 257 -241 257
-5 0 -36 22 -69 50 -33 27 -63 50 -67 50 -4 0 -18 11 -32 25 -30 30 -47 31
-69 7z"/>
<path d="M2441 8082 c-63 -4 -96 -22 -174 -94 -21 -21 -43 -38 -47 -38 -5 0
-28 -23 -52 -50 -23 -28 -80 -88 -125 -134 -46 -46 -83 -88 -83 -94 0 -6 -9
-14 -20 -17 -24 -8 -27 -40 -4 -49 8 -3 12 -10 9 -16 -4 -7 -13 -6 -26 1 -25
13 -60 -8 -37 -23 10 -6 10 -10 1 -15 -11 -8 -16 -27 -14 -50 2 -20 25 -15 41
7 8 11 22 20 32 20 10 0 28 16 40 35 13 19 29 35 36 35 6 0 12 3 12 8 0 12
108 122 120 122 6 0 8 5 5 10 -3 6 0 13 8 16 9 3 21 19 27 35 7 16 16 27 20
24 4 -3 42 27 83 65 41 39 82 70 90 70 9 0 19 5 22 10 4 6 23 17 43 26 33 14
40 13 73 -2 51 -22 107 -6 107 31 0 19 -7 27 -27 31 -14 3 -34 10 -44 15 -35
19 -62 24 -116 21z m-456 -492 c3 -5 2 -10 -4 -10 -5 0 -13 5 -16 10 -3 6 -2
10 4 10 5 0 13 -4 16 -10z"/>
<path d="M3394 7355 c6 -22 3 -25 -19 -25 -18 0 -26 -6 -29 -22 -2 -13 -12
-61 -21 -108 -22 -115 -24 -120 -42 -120 -12 0 -13 8 -8 39 4 25 2 48 -6 63
-7 13 -13 29 -14 37 0 22 -32 38 -47 23 -9 -9 -9 -15 0 -24 16 -16 15 -28 -3
-28 -9 0 -19 10 -24 22 l-8 22 -12 -23 c-7 -13 -16 -60 -21 -105 -4 -44 -11
-90 -15 -101 -37 -100 -60 -153 -73 -168 -8 -9 -12 -20 -9 -23 4 -4 -3 -18
-13 -32 -11 -13 -20 -31 -20 -39 0 -7 -11 -18 -25 -23 -14 -5 -25 -16 -25 -25
0 -8 -7 -15 -16 -15 -9 0 -18 -9 -21 -20 -3 -11 -9 -20 -14 -20 -5 0 -9 -8 -9
-19 0 -17 -181 -220 -225 -250 -11 -8 -26 -23 -33 -33 -21 -29 -138 -108 -160
-108 -32 0 -43 -29 -26 -69 9 -22 11 -38 4 -49 -5 -10 -10 -14 -10 -9 0 16
-60 -24 -86 -58 -20 -26 -24 -39 -16 -47 11 -11 27 -5 102 38 14 7 35 14 47
14 19 0 77 39 94 64 4 5 12 6 18 2 17 -11 -75 -146 -100 -146 -3 0 -36 -28
-72 -62 -72 -69 -90 -83 -127 -99 -13 -5 -27 -14 -30 -18 -3 -4 -21 -15 -40
-25 -19 -9 -53 -28 -75 -41 -22 -13 -54 -30 -71 -38 -17 -8 -35 -20 -38 -26
-4 -6 -12 -9 -17 -6 -5 4 -9 1 -9 -4 0 -6 -9 -11 -20 -11 -14 0 -18 -5 -13
-16 5 -14 1 -16 -20 -12 -17 3 -34 -1 -47 -12 -25 -22 -25 -24 3 -51 16 -15
18 -23 9 -26 -22 -8 -52 -46 -52 -65 0 -23 42 -25 64 -3 8 8 25 15 38 15 13 0
29 5 35 11 7 7 26 13 43 14 17 2 37 9 43 18 7 8 26 17 44 20 19 4 52 25 80 52
26 25 54 45 61 45 7 0 15 7 18 15 4 8 11 15 18 15 13 0 64 42 135 113 27 26
52 47 56 47 21 0 175 144 175 164 0 6 19 32 43 57 60 64 93 110 88 123 -2 6
-3 32 -2 59 1 35 -2 49 -13 53 -23 9 -20 28 9 55 13 13 25 29 25 36 0 6 12 19
28 28 15 9 43 37 62 62 19 24 50 61 68 81 17 20 32 41 32 48 0 6 6 14 14 17 7
3 17 18 20 33 4 15 17 37 29 48 12 12 21 29 19 39 -2 9 1 17 7 17 5 0 12 9 16
19 3 11 15 23 26 26 10 4 19 13 19 20 0 14 89 103 97 97 2 -2 17 8 34 22 25
22 33 24 49 13 13 -7 20 -23 20 -42 0 -17 4 -35 9 -41 4 -5 23 -35 40 -68 61
-113 229 -294 329 -353 157 -93 181 -104 217 -97 39 7 47 29 13 38 -13 3 -54
37 -92 76 -38 38 -74 70 -81 70 -14 0 -211 175 -218 194 -3 8 -26 40 -50 72
-24 33 -55 79 -68 103 -26 48 -35 62 -63 104 -18 26 -18 30 0 137 10 61 22
110 27 110 4 0 6 4 2 9 -3 5 -6 33 -6 61 -1 45 -5 53 -26 61 -34 13 -36 12
-29 -16z m26 -101 c0 -9 -5 -14 -12 -12 -18 6 -21 28 -4 28 9 0 16 -7 16 -16z
m-882 -1122 c4 -14 -34 -16 -42 -3 -6 10 13 21 28 17 6 -1 12 -8 14 -14z"/>
<path d="M1639 7328 c-8 -7 -22 -24 -31 -39 -9 -14 -39 -41 -67 -60 -28 -18
-51 -37 -51 -41 0 -3 -17 -24 -38 -45 -58 -59 -132 -150 -132 -163 0 -6 -7
-18 -15 -26 -8 -9 -15 -27 -15 -40 0 -14 -5 -35 -12 -47 -14 -26 -13 -163 2
-201 8 -23 15 -27 35 -24 17 4 25 1 25 -8 0 -14 19 -20 21 -6 0 4 3 53 5 110
2 65 9 113 19 132 8 16 15 38 15 50 0 11 5 20 10 20 6 0 15 11 20 25 5 14 21
30 35 37 14 6 25 19 25 29 0 9 4 19 9 21 5 2 48 39 96 83 105 96 122 108 135
100 6 -4 33 -1 60 6 45 11 50 16 50 40 0 30 -7 34 -85 44 -27 3 -61 8 -75 11
-14 2 -32 -1 -41 -8z"/>
<path d="M4227 6599 c-19 -11 -47 -60 -47 -83 0 -15 97 -136 149 -185 24 -23
25 -25 7 -35 -61 -35 -71 -77 -34 -148 44 -87 89 -134 378 -400 20 -18 49 -40
65 -48 17 -8 62 -32 100 -54 39 -22 86 -46 105 -54 95 -35 181 -61 240 -72 36
-6 70 -15 75 -20 6 -4 42 -10 81 -13 54 -4 77 -2 93 9 31 22 12 54 -32 54 -18
0 -57 9 -87 21 -30 11 -72 24 -93 29 -21 4 -44 13 -50 19 -6 6 -24 11 -40 11
-16 0 -40 9 -54 20 -14 11 -33 20 -42 20 -9 0 -42 14 -75 30 -32 16 -62 27
-67 24 -5 -3 -12 2 -15 11 -4 9 -43 40 -88 70 -44 29 -110 83 -145 119 -34 36
-66 66 -71 66 -4 0 -23 24 -43 53 -20 28 -46 64 -57 80 -12 15 -17 27 -12 27
6 0 23 -12 39 -27 15 -16 39 -34 53 -41 14 -7 36 -29 50 -47 14 -19 30 -35 37
-35 7 0 16 -6 20 -12 10 -16 57 -48 98 -68 17 -8 44 -23 60 -35 44 -30 124
-55 168 -52 20 1 37 6 37 10 0 4 0 12 0 17 0 6 -7 10 -15 10 -8 0 -25 16 -37
35 -13 19 -36 39 -52 45 -68 24 -286 188 -286 216 0 8 -6 14 -14 14 -24 0
-196 208 -196 237 0 5 -14 22 -31 39 -31 29 -83 102 -84 117 0 10 -45 36 -60
36 -5 0 -18 -4 -28 -10z"/>
<path d="M8310 6285 c-13 -16 1 -74 23 -98 7 -6 25 -30 41 -52 16 -22 34 -44
41 -50 6 -5 23 -32 36 -60 14 -27 42 -81 62 -120 20 -38 37 -82 37 -97 0 -15
5 -30 10 -33 6 -3 10 -16 10 -29 0 -12 4 -26 9 -32 5 -5 14 -47 20 -94 6 -47
16 -114 21 -150 6 -36 12 -92 15 -125 3 -33 9 -87 15 -120 5 -33 14 -103 21
-155 6 -52 15 -100 21 -107 9 -11 13 -327 4 -341 -2 -4 -7 -38 -11 -77 -3 -38
-11 -88 -16 -110 -6 -22 -14 -58 -19 -80 -23 -113 -133 -345 -213 -447 -16
-21 -33 -38 -37 -38 -9 0 18 90 29 100 3 3 7 10 8 15 1 6 17 53 36 105 19 52
39 115 46 140 7 25 16 59 21 75 70 238 83 469 35 622 -29 90 -43 108 -78 99
-42 -10 -56 -93 -27 -161 50 -119 27 -376 -61 -650 -41 -130 -51 -160 -74
-220 -13 -33 -37 -91 -54 -128 -17 -38 -29 -73 -26 -78 8 -12 42 -12 50 1 3 6
23 10 44 10 26 0 49 9 77 30 21 16 46 30 56 30 32 0 109 103 173 230 68 136
115 296 135 461 11 91 15 309 7 369 -15 117 -29 205 -32 210 -2 3 -9 62 -15
130 -17 183 -18 192 -25 225 -15 80 -24 135 -29 182 -3 28 -10 63 -16 78 -5
14 -10 42 -10 61 0 19 -3 34 -7 34 -5 0 -9 17 -11 37 -1 23 -23 72 -57 130
-30 52 -55 96 -55 99 0 2 -27 38 -60 80 -33 41 -60 79 -60 84 0 9 -55 30 -80
30 -10 0 -23 -7 -30 -15z"/>
<path d="M624 5870 c-11 -4 -32 -22 -46 -38 -43 -51 -44 -213 -1 -297 6 -11
19 -47 30 -80 18 -55 22 -60 49 -60 18 0 28 5 26 13 -1 6 4 11 10 10 8 -2 12
6 11 22 -2 14 -4 44 -6 68 -1 24 -8 47 -16 51 -7 5 -11 13 -7 19 3 5 0 15 -7
20 -16 14 -15 144 2 150 6 2 9 8 6 13 -3 4 8 21 25 36 l32 28 -22 28 c-22 27
-48 33 -86 17z"/>
<path d="M5462 5782 c-45 -38 -42 -64 11 -95 23 -14 53 -44 67 -67 59 -99 231
-266 352 -342 24 -15 70 -50 103 -77 32 -28 63 -51 68 -51 5 0 27 -16 50 -35
22 -19 45 -35 51 -35 5 0 17 -7 26 -15 9 -8 54 -34 101 -58 46 -24 111 -59
144 -76 98 -53 183 -73 331 -77 71 -2 138 -6 147 -10 10 -3 23 -2 30 4 6 5 26
13 44 16 36 8 56 28 51 51 -2 13 -17 18 -58 21 -60 4 -101 4 -140 0 -14 -2
-32 0 -40 4 -8 4 -35 10 -60 13 -25 3 -52 8 -60 10 -8 3 -49 15 -90 27 -41 13
-82 27 -90 32 -13 7 -46 23 -90 41 -17 8 -28 15 -112 70 -31 20 -61 37 -66 37
-5 0 -15 7 -22 15 -7 8 -18 15 -25 15 -8 0 -26 12 -42 28 -16 15 -51 43 -77
62 -26 19 -62 47 -81 63 -18 15 -36 27 -40 27 -23 0 -239 205 -249 238 -4 11
-13 23 -21 26 -8 3 -15 12 -15 21 0 8 -25 40 -55 71 -30 31 -55 61 -55 65 0
19 -57 7 -88 -19z m523 -481 c3 -5 1 -12 -5 -16 -5 -3 -10 1 -10 9 0 18 6 21
15 7z"/>
<path d="M1742 5423 c-18 -2 -30 -8 -27 -13 3 -5 -14 -18 -39 -30 -25 -11 -48
-24 -51 -30 -3 -5 -15 -10 -25 -10 -10 0 -34 -9 -53 -20 -18 -11 -53 -26 -78
-34 -24 -8 -70 -24 -103 -35 -32 -12 -62 -18 -67 -15 -5 3 -9 -2 -9 -10 0 -10
9 -16 25 -16 16 0 25 -6 25 -15 0 -10 -11 -15 -35 -15 -19 0 -35 5 -35 10 0 6
-7 10 -15 10 -24 0 -18 -37 8 -44 12 -3 61 -1 107 4 132 16 153 19 164 30 6 6
18 10 27 10 9 0 19 6 22 14 3 7 18 17 34 20 15 4 35 13 43 21 8 7 33 18 55 25
22 7 45 17 50 24 6 6 17 12 25 14 8 1 24 7 35 12 11 5 37 11 58 15 31 5 37 10
37 30 0 51 -48 64 -178 48z"/>
<path d="M875 5299 c-26 -7 -30 -13 -32 -45 -1 -20 -7 -42 -13 -48 -5 -5 -10
-18 -10 -27 0 -10 -4 -19 -10 -21 -5 -1 -13 -56 -16 -121 -4 -65 -10 -120 -15
-122 -4 -3 -5 -62 -3 -132 5 -162 2 -173 -44 -173 -20 0 -50 5 -68 12 -24 9
-39 9 -56 0 l-23 -11 27 0 c17 -1 32 -9 38 -22 14 -25 15 -25 -37 -32 -49 -6
-58 -1 -37 21 12 11 13 17 3 23 -16 9 -56 -19 -65 -46 -4 -11 -14 -25 -23 -32
-9 -7 -12 -13 -8 -13 5 0 -3 -14 -17 -31 -14 -17 -26 -38 -26 -46 0 -9 -8 -25
-17 -35 -24 -27 -25 -182 -1 -263 17 -60 76 -136 189 -245 19 -19 55 -61 78
-92 35 -47 49 -58 72 -58 15 0 30 -4 33 -8 2 -4 5 -53 6 -107 1 -55 6 -134 11
-175 5 -41 10 -86 12 -100 1 -14 6 -31 11 -38 4 -7 6 -16 3 -18 -3 -3 2 -22
10 -42 8 -20 15 -37 14 -37 -1 0 0 -7 3 -15 2 -8 7 -42 10 -75 3 -33 8 -78 12
-100 3 -22 7 -62 8 -90 1 -36 7 -57 23 -74 18 -20 19 -28 11 -53 -6 -16 -21
-41 -35 -54 -13 -13 -35 -48 -48 -78 -13 -29 -31 -56 -39 -59 -9 -4 -16 -13
-16 -20 0 -8 -7 -29 -16 -47 -9 -17 -16 -44 -16 -59 0 -14 -5 -32 -11 -40 -16
-19 -13 -409 2 -424 6 -6 11 -24 11 -40 0 -16 8 -41 19 -55 10 -15 22 -37 25
-49 4 -13 11 -23 15 -23 4 0 7 -8 8 -17 5 -60 26 -118 47 -130 8 -4 24 -30 35
-56 21 -49 143 -176 318 -334 58 -51 73 -71 73 -93 0 -19 10 -36 28 -52 15
-12 37 -36 49 -53 12 -16 45 -48 72 -70 28 -22 50 -45 51 -50 0 -6 9 -11 21
-12 11 -1 40 -19 64 -40 63 -55 102 -83 114 -83 14 0 49 -19 76 -41 11 -9 30
-20 43 -24 12 -3 20 -11 17 -16 -4 -5 2 -9 13 -9 11 0 30 -8 43 -18 39 -29 89
-41 167 -41 65 0 99 -7 182 -39 8 -3 22 -6 31 -7 28 -4 109 -37 109 -46 0 -5
8 -9 17 -9 9 0 24 -6 32 -14 9 -7 39 -21 68 -30 28 -10 56 -23 62 -30 7 -8 24
-16 40 -19 15 -3 58 -26 95 -51 55 -37 79 -46 129 -52 34 -4 80 -14 102 -24
50 -22 108 -32 187 -32 66 0 79 7 84 48 6 56 -71 93 -271 131 -44 8 -95 21
-113 29 -18 8 -40 14 -50 14 -9 0 -28 9 -42 20 -14 11 -30 20 -37 20 -7 0 -17
8 -22 19 -6 10 -26 22 -45 25 -19 4 -39 13 -46 21 -7 8 -17 15 -23 15 -13 0
-100 41 -107 50 -11 15 -103 49 -177 65 -43 10 -83 22 -90 27 -6 5 -40 12 -75
14 -34 3 -70 9 -78 14 -8 4 -36 11 -62 14 -35 5 -46 11 -41 22 3 9 -2 14 -16
14 -26 0 -121 52 -146 80 -10 11 -24 20 -30 20 -7 0 -15 7 -19 15 -3 8 -11 15
-17 15 -14 0 -146 96 -171 124 -10 10 -18 23 -18 28 0 4 -6 8 -13 8 -8 0 -22
18 -32 39 -10 22 -24 42 -31 45 -8 3 -14 11 -14 18 0 7 -9 19 -20 26 -11 7
-20 19 -20 27 0 14 -67 84 -81 85 -13 0 -228 223 -223 232 3 4 -1 15 -8 23
-31 35 -38 45 -38 59 0 8 -6 21 -13 28 -18 18 -47 82 -62 138 -1 3 -4 12 -7
20 -4 8 -11 33 -16 55 -6 22 -18 60 -28 85 -19 50 -26 228 -11 270 5 14 9 41
8 61 -1 23 6 45 19 61 11 15 20 33 20 42 0 8 9 20 20 26 11 6 18 15 15 19 -2
5 2 14 10 21 8 7 15 18 15 24 0 6 9 17 20 24 11 7 20 19 20 27 0 8 8 18 17 23
9 6 19 18 22 28 8 30 7 254 -1 254 -5 0 -8 9 -8 20 0 11 -4 20 -8 20 -5 0 -9
6 -10 13 -1 6 -6 37 -11 67 -6 30 -16 87 -22 125 -6 39 -15 79 -20 90 -9 21
-13 47 -28 160 -5 38 -8 72 -5 76 2 4 0 10 -6 14 -14 9 -13 48 3 64 8 10 8 12
0 7 -8 -4 -13 6 -15 31 -3 38 -3 38 -48 38 -42 0 -50 4 -50 23 0 12 68 8 82
-6 17 -17 41 -15 34 3 -4 12 0 14 20 9 15 -4 31 -1 42 8 9 8 26 18 37 22 19 7
19 8 2 17 -9 6 -15 14 -12 20 4 5 -15 18 -40 29 -56 24 -55 24 -55 6 0 -8 10
-16 22 -18 34 -5 37 -38 4 -38 -31 0 -57 43 -39 61 7 7 8 21 3 38 -5 14 -11
58 -14 96 -3 39 -10 104 -16 145 -5 41 -13 100 -16 130 -9 81 -6 287 5 350 5
30 12 157 15 281 6 224 11 285 27 294 4 3 3 19 -3 35 -5 17 -8 37 -5 45 4 8
-2 23 -11 33 -14 16 -23 18 -47 11z m45 -29 c0 -5 -2 -10 -4 -10 -3 0 -8 5
-11 10 -3 6 -1 10 4 10 6 0 11 -4 11 -10z m-179 -792 c4 -15 8 -75 8 -134 1
-58 5 -113 10 -122 8 -16 11 -48 25 -242 2 -36 2 -68 -1 -73 -7 -11 -137 119
-176 175 -17 27 -35 48 -39 48 -5 0 -8 8 -8 17 0 9 -7 25 -17 35 -14 16 -15
28 -5 110 6 50 9 95 6 100 -3 4 2 8 10 8 9 0 16 4 16 9 0 18 45 79 68 93 15 9
36 13 60 9 28 -5 37 -12 43 -33z m57 -666 c3 -10 -4 -13 -24 -10 -36 4 -43 25
-8 24 15 -1 29 -7 32 -14z m202 -52 c0 -5 -4 -10 -9 -10 -6 0 -13 5 -16 10 -3
6 1 10 9 10 9 0 16 -4 16 -10z m-132 -111 c-2 -6 -8 -10 -13 -10 -5 0 -11 4
-13 10 -2 6 4 11 13 11 9 0 15 -5 13 -11z m97 -1949 c3 -5 1 -10 -4 -10 -6 0
-11 5 -11 10 0 6 2 10 4 10 3 0 8 -4 11 -10z m2134 -1246 c13 -14 29 -23 36
-20 6 2 17 1 24 -3 9 -6 8 -11 -4 -21 -13 -11 -18 -10 -30 6 -8 11 -14 14 -15
7 0 -24 -40 -14 -50 13 -18 47 2 57 39 18z"/>
<path d="M2354 4771 c-17 -5 -42 -15 -55 -24 -13 -10 -36 -17 -51 -17 -16 0
-28 -4 -28 -10 0 -5 -5 -10 -11 -10 -6 0 -28 -13 -49 -30 -21 -16 -42 -30 -48
-30 -5 0 -16 -7 -23 -17 -8 -9 -36 -33 -64 -54 -59 -44 -261 -243 -290 -285
-53 -77 -115 -180 -115 -191 0 -7 -4 -13 -8 -13 -7 0 -34 -44 -36 -60 -1 -3
-5 -11 -10 -18 -10 -17 2 -117 19 -159 12 -27 20 -33 44 -33 21 0 31 5 31 15
0 8 8 15 18 15 9 0 31 9 47 20 17 11 37 20 46 20 9 0 19 7 23 15 3 8 12 15 20
15 8 0 16 5 18 10 2 6 14 12 28 15 14 2 32 14 42 25 9 11 19 20 22 20 2 0 22
16 43 35 21 19 42 35 47 35 5 0 17 7 26 15 16 14 69 46 137 82 18 9 37 29 42
45 6 17 15 27 21 23 6 -4 21 4 33 18 12 14 31 27 42 29 11 2 21 12 23 24 2 11
21 39 42 63 22 24 40 47 40 51 0 4 11 18 25 31 19 19 25 34 25 70 0 25 4 49 9
55 13 13 19 145 8 170 -17 39 -64 51 -133 35z"/>
<path d="M5637 4602 c-26 -10 -51 -22 -55 -28 -4 -6 -15 -13 -25 -17 -29 -11
-39 -53 -26 -118 6 -32 18 -64 25 -70 8 -6 14 -15 14 -20 0 -29 55 -117 130
-209 47 -58 90 -114 96 -125 12 -21 132 -108 174 -127 42 -18 120 -9 170 20
74 43 82 56 75 137 -8 106 -12 124 -39 198 -45 117 -86 168 -201 245 -34 22
-67 48 -75 58 -8 9 -42 30 -75 46 -69 32 -117 35 -188 10z m498 -423 c4 -11 4
-23 1 -27 -8 -7 -36 30 -30 40 9 14 23 8 29 -13z m-65 -79 c6 -11 7 -20 2 -20
-10 0 -32 21 -32 32 0 16 19 8 30 -12z"/>
<path d="M4950 4372 c-14 -9 -26 -28 -27 -42 -2 -31 -4 -235 -2 -246 4 -22 -2
-26 -18 -11 -10 8 -37 20 -60 26 -23 7 -45 15 -48 20 -10 17 -86 51 -114 51
-15 0 -36 9 -46 20 -10 11 -23 20 -29 19 -28 -3 -47 3 -73 25 -67 56 -318 56
-532 1 -30 -8 -58 -12 -62 -10 -4 3 -12 -1 -18 -9 -8 -9 -24 -12 -50 -9 -20 3
-84 -4 -140 -16 -57 -11 -107 -19 -111 -16 -4 3 -13 -1 -19 -9 -6 -8 -43 -17
-84 -21 -42 -4 -79 -13 -89 -22 -22 -20 -48 -10 -48 19 -1 13 -7 34 -15 48 -8
14 -14 52 -15 86 0 91 -45 122 -95 68 -26 -28 -34 -87 -15 -99 6 -3 10 -19 10
-35 0 -16 5 -32 11 -36 7 -4 8 -19 4 -38 -12 -57 -25 -140 -31 -196 -4 -38
-14 -65 -32 -89 -15 -18 -31 -40 -37 -49 -38 -59 -154 -142 -199 -142 -7 0
-21 -9 -31 -20 -10 -11 -24 -20 -31 -20 -7 0 -14 -5 -16 -12 -2 -6 -15 -13
-28 -15 -13 -2 -44 -10 -69 -19 -25 -8 -82 -20 -126 -27 -44 -6 -87 -16 -95
-23 -13 -11 -26 -11 -70 1 -29 8 -85 17 -124 21 -87 9 -301 5 -330 -5 -12 -5
-38 -9 -59 -9 -20 -1 -46 -6 -56 -12 -11 -5 -29 -10 -41 -10 -12 0 -36 -6 -53
-14 -18 -8 -52 -19 -77 -25 -157 -37 -249 -38 -322 -2 -53 26 -128 97 -128
122 0 9 -10 31 -23 50 -12 19 -31 68 -41 109 -10 41 -22 79 -27 84 -4 5 -5 15
-2 22 9 23 -30 104 -49 104 -11 0 -18 8 -18 20 0 23 10 26 28 8 9 -9 12 -1 12
38 0 27 -3 59 -6 72 -7 26 -46 39 -77 25 -21 -10 -22 -17 -21 -87 1 -42 -1
-76 -4 -76 -11 0 -7 -82 6 -120 6 -19 13 -46 16 -60 8 -43 47 -152 63 -176 8
-13 12 -28 9 -33 -4 -5 -2 -12 4 -16 5 -3 10 -13 10 -22 0 -35 147 -193 180
-193 9 0 21 -5 27 -11 7 -7 17 -8 29 -1 10 5 30 6 48 1 45 -12 205 -19 211 -9
3 5 31 12 63 15 53 7 98 21 146 47 10 5 46 12 80 14 34 3 68 7 76 11 8 3 34 5
57 4 23 -2 77 3 119 9 57 9 97 9 158 1 137 -19 149 -20 201 -8 28 6 54 10 60
8 26 -7 125 13 142 28 18 17 83 35 168 47 22 3 42 9 45 12 3 4 17 13 33 19 15
7 27 17 27 23 0 6 4 9 9 6 14 -9 41 4 41 20 0 7 12 20 28 28 15 8 39 27 53 42
15 16 43 42 63 58 20 16 36 35 36 42 0 7 9 18 19 24 22 11 34 53 35 123 1 42
4 49 31 63 17 8 34 22 38 30 4 8 19 14 32 14 13 0 28 6 32 14 4 7 32 16 63 19
75 8 117 15 154 26 17 5 49 12 71 15 22 3 72 12 110 21 160 35 447 71 470 58
10 -6 36 -8 59 -6 35 4 47 1 73 -21 33 -27 109 -65 131 -66 18 0 82 -29 102
-46 22 -19 101 -44 138 -44 19 0 40 8 53 21 11 11 23 18 26 15 3 -3 8 -47 9
-98 2 -52 10 -100 17 -112 7 -12 19 -40 25 -63 29 -98 69 -169 123 -216 30
-26 59 -47 65 -47 6 0 42 -14 80 -31 38 -18 91 -34 118 -36 28 -2 57 -8 65
-12 26 -13 79 -21 190 -26 57 -3 127 -12 155 -20 56 -15 190 -24 202 -12 4 4
21 7 39 7 17 0 36 5 42 11 6 6 52 14 102 17 64 3 91 9 91 18 0 7 18 15 41 19
22 4 53 13 67 21 15 8 35 14 44 14 9 0 30 11 46 25 17 14 34 25 38 25 5 0 20
11 34 24 14 14 57 55 97 92 48 44 76 79 83 103 7 20 25 64 41 97 16 34 29 67
29 74 0 6 8 22 18 34 12 16 24 20 42 16 19 -4 32 2 62 32 21 21 44 38 51 38 7
0 30 9 52 20 22 11 49 20 62 20 12 0 25 5 28 10 8 13 97 3 144 -16 71 -29 111
-10 111 54 0 33 -5 45 -25 58 -14 9 -34 14 -46 11 -25 -7 -119 16 -128 31 -7
12 -101 -7 -139 -27 -12 -6 -25 -10 -29 -10 -4 1 -21 -3 -36 -9 -16 -7 -32
-12 -36 -12 -5 0 -14 -7 -21 -15 -15 -18 -45 -21 -34 -3 12 19 5 100 -11 124
-8 12 -28 29 -45 37 -29 15 -31 15 -55 -17 -18 -24 -26 -47 -27 -87 -2 -30 -7
-57 -12 -61 -6 -4 -5 -12 2 -20 6 -8 8 -19 4 -24 -5 -5 -15 -29 -22 -54 -8
-25 -27 -72 -43 -105 -17 -33 -31 -67 -32 -75 -1 -15 -16 -48 -38 -87 -7 -12
-36 -40 -65 -62 -29 -23 -52 -45 -52 -49 0 -8 -110 -62 -126 -62 -5 0 -29 -14
-54 -31 -36 -25 -52 -30 -82 -26 -21 3 -38 2 -38 -3 0 -6 -53 -19 -110 -26 -8
-1 -32 -9 -54 -18 -21 -9 -42 -14 -46 -11 -4 3 -39 7 -76 10 -38 2 -105 11
-149 20 -44 8 -96 15 -116 15 -20 0 -39 3 -42 6 -4 4 -30 9 -59 11 -28 2 -60
9 -69 14 -10 5 -30 9 -44 9 -15 0 -59 14 -99 30 -76 32 -138 85 -151 130 -4
14 -13 32 -21 40 -7 9 -16 42 -19 74 -3 32 -9 66 -14 75 -13 26 -29 130 -30
201 -1 74 -9 132 -20 164 -5 11 -6 38 -3 59 3 27 -1 43 -13 57 -22 24 -33 25
-65 2z m20 -43 c0 -5 -4 -9 -10 -9 -5 0 -10 7 -10 16 0 8 5 12 10 9 6 -3 10
-10 10 -16z m-1660 -70 c0 -5 -7 -9 -15 -9 -8 0 -15 7 -15 15 0 9 6 12 15 9 8
-4 15 -10 15 -15z m3925 -139 c-5 -8 -11 -8 -17 -2 -6 6 -7 16 -3 22 5 8 11 8
17 2 6 -6 7 -16 3 -22z m-20 -40 c3 -5 1 -10 -4 -10 -6 0 -11 5 -11 10 0 6 2
10 4 10 3 0 8 -4 11 -10z m-2414 -20 c23 -18 23 -19 4 -19 -20 0 -55 21 -55
33 0 13 29 5 51 -14z m-3671 -20 c0 -5 -9 -10 -20 -10 -11 0 -20 5 -20 10 0 6
9 10 20 10 11 0 20 -4 20 -10z m5734 -21 c-8 -14 -24 -10 -24 6 0 9 6 12 15 9
8 -4 12 -10 9 -15z m-24 -64 c0 -8 -4 -15 -10 -15 -5 0 -10 7 -10 15 0 8 5 15
10 15 6 0 10 -7 10 -15z m-5660 -35 c0 -5 -2 -10 -4 -10 -3 0 -8 5 -11 10 -3
6 -1 10 4 10 6 0 11 -4 11 -10z m3860 -171 c0 -11 -4 -17 -10 -14 -5 3 -10 13
-10 21 0 8 5 14 10 14 6 0 10 -9 10 -21z"/>
<path d="M7764 4132 c-41 -4 -93 -58 -101 -104 -5 -31 -2 -38 22 -54 25 -17
28 -17 56 0 38 22 103 15 192 -21 106 -43 139 -88 140 -194 0 -52 -17 -82 -83
-147 -22 -21 -40 -43 -40 -49 0 -5 -14 -29 -30 -52 -32 -44 -50 -82 -55 -116
-1 -11 -7 -40 -13 -64 -8 -33 -7 -67 4 -134 8 -50 12 -102 9 -116 -3 -15 -24
-42 -46 -61 -96 -83 -101 -90 -74 -126 13 -18 14 -18 15 -1 0 10 5 15 10 12 6
-4 8 -11 5 -16 -4 -5 -1 -9 6 -9 7 0 20 -6 28 -14 13 -12 26 -13 63 -5 87 19
144 112 140 229 -7 268 -6 285 13 325 10 22 47 72 80 110 96 109 114 145 114
237 0 66 -4 84 -29 132 -17 31 -30 62 -30 69 0 7 -23 31 -52 52 -53 41 -140
77 -239 99 -31 7 -60 15 -65 17 -5 3 -23 3 -40 1z"/>
<path d="M8525 3801 c-3 -10 -11 -18 -18 -17 -7 0 -12 -3 -12 -9 0 -5 5 -9 12
-7 19 4 16 -11 -6 -40 -15 -18 -20 -43 -22 -102 -2 -69 -12 -132 -27 -176 -3
-8 -7 -26 -8 -40 -6 -54 -17 -90 -30 -101 -8 -6 -14 -20 -14 -30 0 -10 -5 -21
-10 -24 -6 -4 -8 -10 -5 -15 3 -5 1 -11 -5 -15 -5 -3 -21 -29 -35 -58 -15 -29
-50 -88 -79 -132 -97 -148 -116 -178 -116 -192 0 -7 -9 -22 -21 -34 -30 -30
-69 -90 -69 -105 0 -28 53 -14 106 29 29 23 53 47 54 53 0 6 6 17 14 23 8 7
23 31 35 55 11 24 26 50 34 57 16 17 97 136 97 143 0 3 18 35 40 71 46 75 59
104 107 235 31 84 35 108 38 210 4 141 -15 240 -46 240 -4 0 -10 -8 -14 -19z"/>
<path d="M3287 3278 c-15 -16 -27 -38 -27 -47 0 -9 -9 -34 -20 -56 -11 -22
-20 -55 -20 -75 0 -62 27 -141 59 -174 17 -18 31 -38 31 -45 0 -10 9 -11 35
-7 22 4 35 3 35 -4 0 -5 -11 -10 -25 -10 -14 0 -25 -4 -25 -10 0 -14 35 -30
64 -30 24 0 26 4 26 41 0 30 -10 58 -37 103 -38 60 -38 62 -38 166 0 58 -4
110 -8 117 -5 7 1 13 15 15 14 2 24 11 26 23 2 16 -4 20 -31 22 -26 1 -40 -5
-60 -29z m37 -37 c3 -5 0 -11 -8 -14 -15 -6 -26 1 -26 15 0 11 27 10 34 -1z
m-34 -85 c0 -11 -19 -15 -25 -6 -3 5 1 10 9 10 9 0 16 -2 16 -4z"/>
<path d="M5027 3163 c-44 -34 -45 -47 -10 -98 22 -32 27 -50 26 -99 -1 -42 -6
-63 -17 -71 -9 -7 -13 -14 -10 -17 3 -4 0 -25 -6 -48 -14 -54 -2 -69 59 -72
33 -1 46 3 54 18 18 30 37 87 37 111 0 12 5 25 11 29 15 9 5 109 -18 181 -13
41 -24 58 -50 73 -19 11 -35 20 -37 20 -2 0 -19 -12 -39 -27z"/>
<path d="M6375 2976 c-38 -16 -47 -28 -70 -96 -10 -30 -24 -58 -31 -62 -6 -4
-23 -30 -38 -57 l-26 -50 23 -26 c15 -18 36 -28 64 -32 l42 -5 11 43 c6 24 12
46 13 49 9 24 102 170 108 170 5 0 9 16 9 35 0 27 -4 35 -17 35 -10 0 -27 2
-38 5 -11 3 -34 -1 -50 -9z"/>
<path d="M6676 2944 c-9 -8 -16 -30 -16 -48 0 -18 -9 -45 -20 -59 -11 -14 -20
-30 -20 -36 0 -5 -6 -14 -13 -18 -6 -4 -18 -25 -25 -45 -20 -58 13 -97 70 -83
24 6 58 51 58 76 0 6 11 26 23 43 47 62 60 141 29 169 -23 21 -66 22 -86 1z
m-36 -240 c0 -9 -5 -14 -12 -12 -18 6 -21 28 -4 28 9 0 16 -7 16 -16z"/>
<path d="M6039 2943 c-1 -5 -1 -17 -1 -28 1 -17 0 -17 -4 -2 -6 19 -36 24 -33
5 2 -7 -19 -58 -46 -113 -32 -66 -50 -117 -53 -151 -4 -45 -2 -52 21 -67 34
-22 54 -13 61 29 4 20 13 34 21 34 18 0 18 5 5 30 -8 16 -6 22 9 32 14 9 19
19 15 35 -5 17 -2 23 10 23 9 0 15 3 14 8 -2 13 21 62 30 62 15 0 24 80 11 96
-12 15 -58 20 -60 7z"/>
<path d="M6880 2843 c-17 -22 -21 -36 -15 -68 5 -35 18 -54 35 -55 12 0 80 79
89 103 13 33 -3 47 -50 47 -29 0 -42 -6 -59 -27z"/>
<path d="M1555 2855 c-5 -2 -23 -6 -38 -9 -28 -7 -71 -62 -61 -78 3 -4 0 -8
-5 -8 -6 0 -11 -8 -11 -19 0 -10 -7 -24 -15 -31 -19 -16 -75 -98 -75 -110 0
-4 -3 -10 -7 -12 -13 -5 -43 -77 -35 -81 4 -3 24 -7 45 -11 49 -9 37 -28 -16
-24 -47 3 -57 -11 -33 -47 20 -30 66 -34 82 -7 6 9 11 19 11 22 -1 15 26 50
38 50 9 0 15 10 15 25 0 14 21 57 47 97 51 79 87 148 84 161 -1 5 3 6 8 3 14
-9 25 14 13 26 -6 6 -8 16 -5 23 5 14 -24 34 -42 30z m-180 -415 c3 -5 -3 -10
-14 -10 -12 0 -21 5 -21 10 0 6 6 10 14 10 8 0 18 -4 21 -10z"/>
<path d="M1250 2787 c-14 -7 -29 -22 -35 -34 -5 -12 -20 -28 -33 -35 -31 -16
-47 -55 -31 -74 9 -11 8 -14 -5 -14 -19 0 -62 -43 -71 -71 -4 -11 -10 -19 -15
-19 -14 0 -37 -84 -33 -117 5 -28 34 -53 64 -53 17 0 68 64 69 86 0 20 -35 44
-64 44 -19 0 -27 25 -13 39 17 17 33 13 50 -11 12 -19 18 -21 34 -12 10 6 20
20 22 30 2 10 6 21 10 24 4 3 19 21 33 40 20 27 24 39 17 53 -8 13 -6 17 8 17
10 0 33 14 52 30 27 24 32 35 27 55 -4 14 -13 25 -20 25 -8 0 -20 2 -28 5 -7
3 -24 -1 -38 -8z"/>
<path d="M2016 2767 c-14 -19 -29 -48 -32 -65 -4 -17 -13 -37 -20 -43 -8 -6
-14 -19 -14 -28 0 -9 -4 -21 -10 -27 -5 -5 -14 -31 -19 -57 -12 -68 25 -113
59 -72 10 12 10 15 -4 15 -20 0 -21 26 -2 33 7 3 19 0 25 -6 8 -8 14 -8 23 1
10 10 10 15 -1 21 -10 6 -5 14 18 30 17 12 31 30 31 39 0 9 9 32 20 50 11 18
20 39 20 47 0 8 5 15 11 15 15 0 3 61 -14 72 -29 18 -66 8 -91 -25z"/>
<path d="M1755 2780 c-19 -7 -53 -40 -43 -40 9 0 -12 -92 -23 -107 -16 -19
-22 -99 -9 -123 8 -14 21 -20 46 -20 40 0 64 19 64 48 0 11 4 22 10 24 5 2 11
20 14 41 3 21 9 44 14 50 13 17 9 88 -6 115 -13 23 -33 27 -67 12z m36 -183
c-1 -12 -15 -9 -19 4 -3 6 1 10 8 8 6 -3 11 -8 11 -12z"/>
<path d="M8000 2133 c-47 -17 -109 -67 -119 -96 -14 -38 -238 -263 -290 -290
-46 -25 -71 -47 -71 -64 0 -17 35 -17 68 1 15 8 47 19 71 26 24 6 61 28 83 48
22 20 47 41 56 46 10 5 24 16 33 25 9 9 25 23 35 32 11 9 38 38 61 65 24 27
68 77 99 112 35 40 53 69 50 79 -3 8 -6 17 -6 19 0 6 -52 4 -70 -3z"/>
<path d="M7148 2097 c-18 -17 -27 -38 -32 -77 -4 -30 -20 -79 -36 -110 -42
-81 -70 -147 -70 -165 0 -9 -7 -28 -17 -43 -40 -66 -90 -140 -118 -177 -17
-22 -43 -65 -59 -95 -16 -30 -46 -78 -67 -106 -22 -28 -39 -56 -39 -63 0 -14
-50 -80 -97 -127 -18 -18 -33 -37 -33 -41 0 -5 -25 -35 -55 -67 -30 -31 -55
-62 -55 -67 0 -5 -9 -14 -20 -21 -11 -7 -20 -18 -20 -24 0 -14 -43 -54 -58
-54 -14 0 -95 -41 -103 -52 -3 -4 -24 -7 -47 -6 -29 1 -52 -5 -70 -18 -31 -23
-117 -64 -133 -64 -6 0 -24 -9 -40 -21 -16 -11 -52 -24 -81 -28 -29 -5 -54
-14 -56 -20 -2 -6 -12 -11 -21 -11 -10 0 -21 -3 -25 -7 -14 -14 -152 -59 -210
-68 -21 -4 -35 -9 -32 -13 9 -8 -92 -36 -269 -74 -27 -6 -54 -14 -60 -18 -5
-4 -29 -11 -52 -15 -24 -4 -43 -11 -43 -16 0 -5 -8 -9 -18 -9 -24 0 -131 -38
-156 -56 -11 -8 -28 -14 -38 -14 -10 0 -18 -4 -18 -10 0 -5 -10 -10 -23 -10
-13 0 -28 -5 -34 -11 -6 -6 -66 -15 -134 -21 -68 -5 -129 -14 -136 -20 -7 -6
-27 -8 -45 -4 -18 3 -49 2 -69 -3 -21 -5 -60 -4 -90 1 -30 5 -117 11 -194 13
-77 2 -162 9 -190 14 -50 9 -128 22 -260 43 -38 5 -86 14 -105 19 -59 15 -83
10 -123 -25 l-38 -34 31 -36 c37 -41 87 -70 96 -54 9 14 143 -1 392 -42 34 -6
149 -15 255 -20 105 -6 202 -12 214 -15 12 -3 48 2 79 10 32 8 94 15 139 15
115 0 183 14 269 54 41 19 88 38 103 42 15 4 37 13 48 20 11 8 32 14 48 14 15
0 45 9 66 19 20 11 84 29 142 40 128 25 209 49 209 61 0 6 10 10 22 10 11 0
46 12 76 26 30 14 71 28 91 30 51 7 140 34 147 45 3 5 15 9 28 9 12 0 31 7 42
15 10 8 25 15 32 15 7 0 51 18 97 41 47 22 89 38 94 35 4 -3 27 3 49 14 23 11
49 20 59 20 22 0 122 40 144 58 50 41 173 170 254 267 22 27 61 73 88 103 26
30 47 59 47 63 0 4 8 15 17 24 18 18 37 50 76 130 13 28 38 64 54 81 16 17 34
44 41 59 7 15 22 29 33 32 12 3 19 12 17 23 -2 9 9 32 23 51 15 19 38 68 53
109 15 41 40 99 57 128 80 142 109 270 71 305 -27 25 -84 22 -114 -6z m57 -87
c8 -13 -14 -52 -26 -45 -5 4 -9 13 -9 21 0 8 4 12 10 9 6 -3 7 1 4 9 -7 17 11
22 21 6z m-2325 -1750 c0 -5 -2 -10 -4 -10 -3 0 -8 5 -11 10 -3 6 -1 10 4 10
6 0 11 -4 11 -10z"/>
<path d="M3986 1899 c-16 -4 -38 -17 -50 -27 -11 -10 -40 -26 -64 -36 -23 -9
-66 -34 -93 -56 -33 -26 -61 -40 -80 -40 -25 0 -64 -16 -255 -106 -28 -13 -66
-27 -85 -30 -19 -4 -41 -12 -49 -19 -13 -11 -107 -28 -150 -27 -22 1 -123 -19
-135 -26 -18 -11 -51 -13 -265 -17 -118 -2 -228 -7 -245 -12 -16 -6 -43 -6
-58 -2 -16 4 -38 4 -50 0 -29 -11 -63 0 -119 38 -49 33 -48 32 -62 135 -9 69
-74 110 -112 72 -20 -20 -17 -29 6 -23 11 3 22 2 25 -3 8 -12 -21 -31 -38 -24
-11 4 -16 -2 -19 -23 -3 -29 6 -52 63 -163 5 -8 16 -32 25 -53 12 -28 24 -40
45 -44 16 -3 34 -12 40 -19 6 -8 20 -14 30 -14 10 0 20 -4 23 -9 6 -9 287 -6
377 4 26 3 61 13 78 21 21 11 42 14 59 9 33 -9 186 -10 227 -2 17 4 59 11 95
16 177 25 216 33 226 47 6 8 23 14 38 14 15 0 44 9 66 20 22 11 44 20 50 20 6
0 53 20 103 44 51 24 117 51 148 60 31 9 59 22 62 30 3 8 25 20 48 26 23 6 50
20 61 30 27 25 63 30 95 13 117 -62 221 -113 231 -113 7 0 53 -20 103 -45 50
-25 98 -45 108 -45 9 0 34 -9 55 -19 21 -11 51 -23 67 -26 16 -4 31 -11 34
-16 4 -5 19 -9 34 -9 16 0 40 -9 54 -21 35 -27 126 -40 277 -41 162 0 350 12
372 23 9 5 42 9 73 9 31 0 73 7 93 16 54 24 73 31 115 48 67 27 119 72 198
174 74 93 54 173 -40 164 -34 -3 -45 -9 -54 -31 -7 -14 -17 -32 -24 -39 -7 -7
-13 -19 -13 -25 0 -32 -191 -157 -239 -157 -11 0 -21 -5 -23 -10 -2 -6 -68
-12 -163 -15 -88 -3 -175 -11 -194 -17 -42 -13 -199 -4 -287 17 -34 8 -87 26
-117 40 -31 14 -61 25 -67 25 -6 0 -24 10 -39 21 -16 12 -34 18 -41 14 -6 -4
-26 0 -43 8 -18 9 -48 23 -67 32 -19 8 -42 19 -50 24 -8 5 -33 17 -55 27 -22
11 -56 28 -75 40 -19 12 -46 25 -60 29 -14 4 -50 25 -80 47 -64 45 -104 58
-144 47z m1852 -121 c13 -13 16 -60 5 -71 -12 -13 -43 26 -43 55 0 30 17 37
38 16z m-1514 -94 c9 -3 16 -10 16 -15 0 -15 -37 -10 -50 6 -10 12 -10 15 3
15 8 0 22 -3 31 -6z m1486 0 c0 -12 -51 -54 -66 -54 -16 0 -17 5 -8 38 5 17
14 22 40 22 19 0 34 -3 34 -6z m-3601 -115 c27 -26 24 -31 -17 -23 -22 5 -32
12 -32 25 0 25 21 24 49 -2z"/>
</g>
</svg>
